<svg width="386" height="77" viewBox="0 0 386 77" fill="none" xmlns="http://www.w3.org/2000/svg">
  <g id="e46ae707f492a4cfd677899d0f2a0a1e">
    <g id="e4f1a4ffa895618a656a240bfbd38e8f">
      <path d="M45.288 20.68C46.952 20.68 48.328 21.224 49.416 22.312C50.504 23.4 51.048 24.808 51.048 26.536V67.144C51.048 68.808 50.504 70.216 49.416 71.368C48.328 72.456 46.952 73 45.288 73C43.624 73 42.248 72.456 41.16 71.368C40.072 70.216 39.528 68.808 39.528 67.144V62.44L41.64 63.304C41.64 64.136 41.192 65.16 40.296 66.376C39.4 67.528 38.184 68.68 36.648 69.832C35.112 70.984 33.288 71.976 31.176 72.808C29.128 73.576 26.888 73.96 24.456 73.96C20.04 73.96 16.04 72.84 12.456 70.6C8.872 68.296 6.024 65.16 3.912 61.192C1.864 57.16 0.84 52.552 0.84 47.368C0.84 42.12 1.864 37.512 3.912 33.544C6.024 29.512 8.84 26.376 12.36 24.136C15.88 21.832 19.784 20.68 24.072 20.68C26.824 20.68 29.352 21.096 31.656 21.928C33.96 22.76 35.944 23.816 37.608 25.096C39.336 26.376 40.648 27.688 41.544 29.032C42.504 30.312 42.984 31.4 42.984 32.296L39.528 33.544V26.536C39.528 24.872 40.072 23.496 41.16 22.408C42.248 21.256 43.624 20.68 45.288 20.68ZM25.896 63.4C28.712 63.4 31.176 62.696 33.288 61.288C35.4 59.88 37.032 57.96 38.184 55.528C39.4 53.096 40.008 50.376 40.008 47.368C40.008 44.296 39.4 41.544 38.184 39.112C37.032 36.68 35.4 34.76 33.288 33.352C31.176 31.944 28.712 31.24 25.896 31.24C23.144 31.24 20.712 31.944 18.6 33.352C16.488 34.76 14.824 36.68 13.608 39.112C12.456 41.544 11.88 44.296 11.88 47.368C11.88 50.376 12.456 53.096 13.608 55.528C14.824 57.96 16.488 59.88 18.6 61.288C20.712 62.696 23.144 63.4 25.896 63.4Z" fill="#0F0F0F"></path>
      <path d="M69.2812 73C67.6172 73 66.2412 72.456 65.1532 71.368C64.0652 70.216 63.5213 68.808 63.5213 67.144V27.496C63.5213 25.832 64.0652 24.456 65.1532 23.368C66.2412 22.216 67.6172 21.64 69.2812 21.64C70.9452 21.64 72.3213 22.216 73.4093 23.368C74.4973 24.456 75.0412 25.832 75.0412 27.496V36.52L74.3693 30.088C75.0733 28.552 75.9693 27.208 77.0573 26.056C78.2093 24.84 79.4893 23.848 80.8973 23.08C82.3053 22.248 83.8093 21.64 85.4093 21.256C87.0093 20.872 88.6093 20.68 90.2093 20.68C92.1293 20.68 93.7293 21.224 95.0093 22.312C96.3533 23.4 97.0252 24.68 97.0252 26.152C97.0252 28.264 96.4813 29.8 95.3933 30.76C94.3053 31.656 93.1213 32.104 91.8413 32.104C90.6253 32.104 89.5053 31.88 88.4813 31.432C87.5212 30.984 86.4012 30.76 85.1213 30.76C83.9692 30.76 82.7852 31.048 81.5692 31.624C80.4172 32.136 79.3292 32.968 78.3052 34.12C77.3452 35.272 76.5452 36.712 75.9052 38.44C75.3292 40.104 75.0412 42.088 75.0412 44.392V67.144C75.0412 68.808 74.4973 70.216 73.4093 71.368C72.3213 72.456 70.9452 73 69.2812 73Z" fill="#0F0F0F"></path>
      <path d="M105.722 22.6H128.474C130.01 22.6 131.29 23.112 132.314 24.136C133.338 25.16 133.85 26.44 133.85 27.976C133.85 29.448 133.338 30.696 132.314 31.72C131.29 32.68 130.01 33.16 128.474 33.16H105.722C104.186 33.16 102.906 32.648 101.882 31.624C100.858 30.6 100.346 29.32 100.346 27.784C100.346 26.312 100.858 25.096 101.882 24.136C102.906 23.112 104.186 22.6 105.722 22.6ZM115.994 10.6C117.658 10.6 119.002 11.176 120.026 12.328C121.114 13.416 121.658 14.792 121.658 16.456V59.176C121.658 60.072 121.818 60.808 122.138 61.384C122.522 61.96 123.002 62.376 123.578 62.632C124.218 62.888 124.89 63.016 125.594 63.016C126.362 63.016 127.066 62.888 127.706 62.632C128.346 62.312 129.082 62.152 129.914 62.152C130.81 62.152 131.61 62.568 132.314 63.4C133.082 64.232 133.466 65.384 133.466 66.856C133.466 68.648 132.474 70.12 130.49 71.272C128.57 72.424 126.49 73 124.25 73C122.906 73 121.402 72.904 119.738 72.712C118.138 72.456 116.602 71.912 115.13 71.08C113.722 70.184 112.538 68.84 111.578 67.048C110.618 65.256 110.138 62.792 110.138 59.656V16.456C110.138 14.792 110.682 13.416 111.77 12.328C112.922 11.176 114.33 10.6 115.994 10.6Z" fill="#0F0F0F"></path>
      <path d="M284.282 21.64C285.754 21.64 287.034 22.216 288.122 23.368C289.21 24.456 289.754 25.864 289.754 27.592C289.754 28.04 289.722 28.456 289.658 28.84C289.594 29.16 289.498 29.48 289.37 29.8L274.682 69.352C274.234 70.632 273.434 71.624 272.282 72.328C271.13 72.968 269.914 73.192 268.634 73C266.458 72.872 264.826 71.656 263.738 69.352L254.234 41.992L256.73 42.088L247.802 69.352C246.714 71.656 245.082 72.872 242.906 73C241.69 73.192 240.474 72.968 239.258 72.328C238.106 71.624 237.306 70.632 236.858 69.352L222.17 29.8C221.914 29.096 221.786 28.36 221.786 27.592C221.786 26.056 222.298 24.68 223.322 23.464C224.346 22.248 225.754 21.64 227.546 21.64C228.762 21.64 229.85 21.928 230.81 22.504C231.77 23.08 232.442 24.008 232.826 25.288L244.442 56.776L242.042 56.584L250.778 32.872C251.802 30.504 253.562 29.32 256.058 29.32C257.466 29.32 258.522 29.64 259.226 30.28C259.994 30.856 260.602 31.72 261.05 32.872L269.786 56.584L266.906 56.968L278.714 25.288C279.482 22.856 281.338 21.64 284.282 21.64Z" fill="#0F0F0F"></path>
      <path d="M304.594 73C302.93 73 301.554 72.456 300.466 71.368C299.378 70.216 298.834 68.808 298.834 67.144V27.496C298.834 25.832 299.378 24.456 300.466 23.368C301.554 22.216 302.93 21.64 304.594 21.64C306.258 21.64 307.634 22.216 308.722 23.368C309.81 24.456 310.354 25.832 310.354 27.496V36.52L309.682 30.088C310.386 28.552 311.282 27.208 312.37 26.056C313.522 24.84 314.802 23.848 316.21 23.08C317.618 22.248 319.122 21.64 320.722 21.256C322.322 20.872 323.922 20.68 325.522 20.68C327.442 20.68 329.042 21.224 330.322 22.312C331.666 23.4 332.338 24.68 332.338 26.152C332.338 28.264 331.794 29.8 330.706 30.76C329.618 31.656 328.434 32.104 327.154 32.104C325.938 32.104 324.818 31.88 323.794 31.432C322.834 30.984 321.714 30.76 320.434 30.76C319.282 30.76 318.098 31.048 316.882 31.624C315.73 32.136 314.642 32.968 313.618 34.12C312.658 35.272 311.858 36.712 311.218 38.44C310.642 40.104 310.354 42.088 310.354 44.392V67.144C310.354 68.808 309.81 70.216 308.722 71.368C307.634 72.456 306.258 73 304.594 73Z" fill="#0F0F0F"></path>
      <path d="M347.179 73C345.515 73 344.139 72.456 343.051 71.368C341.963 70.216 341.419 68.808 341.419 67.144V7.816C341.419 6.152 341.963 4.776 343.051 3.68799C344.139 2.536 345.515 1.96 347.179 1.96C348.843 1.96 350.219 2.536 351.307 3.68799C352.395 4.776 352.939 6.152 352.939 7.816V67.144C352.939 68.808 352.395 70.216 351.307 71.368C350.219 72.456 348.843 73 347.179 73ZM377.707 21.64C379.179 21.64 380.459 22.248 381.547 23.464C382.635 24.68 383.179 25.864 383.179 27.016C383.179 28.552 382.411 29.992 380.875 31.336L351.979 57.928L351.499 44.68L373.483 23.464C374.699 22.248 376.107 21.64 377.707 21.64ZM379.147 72.904C377.483 72.904 376.075 72.264 374.923 70.984L357.163 52.168L365.899 44.104L383.179 62.92C384.395 64.2 385.003 65.64 385.003 67.24C385.003 68.904 384.331 70.28 382.987 71.368C381.707 72.392 380.427 72.904 379.147 72.904Z" fill="#0F0F0F"></path>
    </g>
    <g id="83b3d2b59829a855d4c5df141c2f0cd2">
      <path d="M167.248 73.44C163.923 75.36 160.334 76.3974 156.482 76.5521C152.63 76.7069 148.863 75.7287 145.18 73.6176C141.529 71.39 138.296 67.8375 135.48 62.96C132.621 58.0086 131.161 53.4321 131.1 49.2304C131.113 44.986 132.15 41.2345 134.21 37.9759C136.27 34.7173 138.963 32.128 142.288 30.208C146.5 27.776 150.369 26.6262 153.894 26.7587C157.494 26.8485 161.551 27.5608 166.065 28.8955L193.679 37.0443C196.52 37.8678 198.982 38.1214 201.065 37.8052C203.149 37.489 205.041 36.8402 206.741 35.8589C208.366 34.9202 209.668 33.676 210.645 32.1264C211.623 30.5767 212.07 28.7912 211.987 26.77C211.978 24.706 211.269 22.4547 209.861 20.016C208.453 17.5773 206.858 15.8379 205.075 14.798C203.366 13.7154 201.596 13.21 199.765 13.2816C197.935 13.3533 196.206 13.8585 194.581 14.7971C193.472 15.4371 192.412 16.2463 191.4 17.2245C190.462 18.1601 189.615 19.3388 188.86 20.7604C188.135 22.0656 187.523 23.6507 187.023 25.5157L180.273 53.5045C179.098 58.1245 177.686 61.9941 176.038 65.1133C174.391 68.2324 171.46 71.008 167.248 73.44ZM161.846 61.7789C163.545 60.7975 165.09 59.4623 166.48 57.7732C167.827 56.0102 168.801 53.7725 169.403 51.0603L176.153 23.0715C177.212 18.4202 178.586 14.572 180.277 11.5267C181.999 8.36491 184.966 5.568 189.178 3.136C192.578 1.17334 196.166 0.13596 199.945 0.0238762C203.797 -0.130872 207.527 0.868621 211.135 3.02236C214.817 5.13342 218.088 8.66464 220.946 13.616C223.762 18.4934 225.185 23.0913 225.215 27.4096C225.276 31.6114 224.277 35.3415 222.217 38.6001C220.23 41.816 217.538 44.4053 214.138 46.368C209.926 48.8 206.02 49.9711 202.421 49.8813C198.853 49.6749 194.833 48.9413 190.361 47.6805L162.747 39.5317C160.956 38.9893 159.277 38.7269 157.711 38.7444C156.175 38.6454 154.731 38.7895 153.378 39.1765C152.099 39.5209 150.868 40.0345 149.686 40.7171C148.06 41.6558 146.758 42.9 145.781 44.4496C144.803 45.9993 144.319 47.8061 144.328 49.87C144.412 51.8913 145.157 54.1213 146.565 56.56C147.973 58.9987 149.532 60.7594 151.24 61.842C153.023 62.8819 154.83 63.366 156.661 63.2944C158.492 63.2227 160.22 62.7175 161.846 61.7789Z" fill="url(#c44490eccf78e08fec6fdf091c868ac3)" style="mix-blend-mode:lighten"></path>
    </g>
  </g>
  <defs>
    <linearGradient id="c44490eccf78e08fec6fdf091c868ac3" x1="135.104" y1="60.4551" x2="216.847" y2="14.8096" gradientUnits="userSpaceOnUse">
      <stop stop-color="#F7112D" stop-opacity="0.5"></stop>
      <stop offset="0.5" stop-color="#98BB4F" stop-opacity="0.75"></stop>
      <stop offset="1" stop-color="#1F0C8E" stop-opacity="0.75"></stop>
    </linearGradient>
  </defs>
</svg>