<svg width="100" height="50" viewBox="0 0 100 50" fill="none" xmlns="http://www.w3.org/2000/svg">
  <g id="2ab0b71976d1a917d939e65e4aaea2bc">
    <path d="M23.032 49.984C19.192 49.984 15.5653 49.088 12.152 47.296C8.73867 45.504 5.96534 42.7733 3.832 39.104C1.784 35.3493 0.760002 30.656 0.760002 25.024C0.760002 19.3067 1.784 14.6133 3.832 10.944C5.96534 7.27466 8.73867 4.544 12.152 2.752C15.5653 0.959999 19.192 0.0639992 23.032 0.0639992C27.896 0.0639992 31.8213 1.00267 34.808 2.88C37.88 4.75733 41.0373 7.40267 44.28 10.816L64.12 31.68C66.168 33.8133 68.1733 35.264 70.136 36.032C72.0987 36.8 74.0613 37.184 76.024 37.184C77.9013 37.184 79.6507 36.7573 81.272 35.904C82.8933 35.0507 84.1733 33.728 85.112 31.936C86.136 30.144 86.648 27.84 86.648 25.024C86.648 22.208 86.136 19.904 85.112 18.112C84.1733 16.32 82.8933 14.9973 81.272 14.144C79.6507 13.2907 77.9013 12.864 76.024 12.864C74.744 12.864 73.4213 13.0347 72.056 13.376C70.776 13.7173 69.4533 14.3147 68.088 15.168C66.808 15.936 65.4853 17.0027 64.12 18.368L44.28 39.232C40.952 42.6453 37.7947 45.2907 34.808 47.168C31.8213 49.0453 27.896 49.984 23.032 49.984ZM24.184 37.184C26.1467 37.184 28.152 36.8 30.2 36.032C32.248 35.1787 34.2107 33.728 36.088 31.68L55.928 10.816C59.1707 7.31733 62.2853 4.672 65.272 2.88C68.344 1.00267 72.312 0.0639992 77.176 0.0639992C81.1013 0.0639992 84.728 0.959999 88.056 2.752C91.4693 4.544 94.2 7.27466 96.248 10.944C98.3813 14.6133 99.448 19.3067 99.448 25.024C99.448 30.656 98.3813 35.3493 96.248 39.104C94.2 42.7733 91.4693 45.504 88.056 47.296C84.728 49.088 81.1013 49.984 77.176 49.984C72.312 49.984 68.344 49.0453 65.272 47.168C62.2853 45.2053 59.1707 42.56 55.928 39.232L36.088 18.368C34.808 17.0027 33.4853 15.936 32.12 15.168C30.84 14.3147 29.5173 13.7173 28.152 13.376C26.872 13.0347 25.5493 12.864 24.184 12.864C22.3067 12.864 20.5573 13.2907 18.936 14.144C17.3147 14.9973 15.992 16.32 14.968 18.112C14.0293 19.904 13.56 22.208 13.56 25.024C13.56 27.84 14.0293 30.144 14.968 31.936C15.992 33.728 17.3147 35.0507 18.936 35.904C20.5573 36.7573 22.3067 37.184 24.184 37.184Z" fill="url(#f0d598993503d917645501fb7d1514b4)" style="mix-blend-mode:lighten"></path>
  </g>
  <defs>
    <linearGradient id="f0d598993503d917645501fb7d1514b4" x1="1.68675" y1="22.6667" x2="95.3011" y2="24.0081" gradientUnits="userSpaceOnUse">
      <stop stop-color="#F7112D" stop-opacity="0.5"></stop>
      <stop offset="0.5" stop-color="#98BB4F" stop-opacity="0.75"></stop>
      <stop offset="1" stop-color="#1F0C8E" stop-opacity="0.75"></stop>
    </linearGradient>
  </defs>
</svg>