<svg width="298" height="353" viewBox="0 0 298 353" fill="none" xmlns="http://www.w3.org/2000/svg">
  <g id="23d6400c557f4b5281d19f7668d11935">
    <path d="M279.78 134.119C283.04 132.953 285.996 130.982 288.335 128.328L288.704 127.91C296.243 119.359 295.421 106.269 286.87 98.729L241.223 58.478C237.444 55.145 232.589 53.31 227.554 53.31C221.619 53.31 215.965 55.862 212.045 60.307L211.669 60.732C209.816 62.833 208.44 65.238 207.574 67.816C196.964 63.243 185.718 59.878 174.008 57.889V42H180.401C191.764 42 201.008 32.755 201.008 21.393V20.608C201.008 9.245 191.764 0 180.4 0H117.615C106.252 0 97.008 9.245 97.008 20.607V21.392C97.008 32.755 106.252 41.999 117.615 41.999H125.008V57.755C54.705 69.301 0.893997 130.48 0.893997 204C0.893997 285.726 67.382 352.214 149.107 352.214C230.833 352.214 297.321 285.726 297.321 204C297.32 178.746 290.965 154.951 279.78 134.119ZM149.106 316.214C87.232 316.214 36.893 265.875 36.893 204C36.893 142.125 87.232 91.786 149.106 91.786C210.981 91.786 261.32 142.125 261.32 204C261.32 265.875 210.981 316.214 149.106 316.214Z" fill="white"></path>
    <path d="M164.008 177.583V133C164.008 124.716 157.292 118 149.008 118C140.724 118 134.008 124.716 134.008 133V177.697C125.23 182.883 119.325 192.439 119.325 203.353C119.325 219.775 132.684 233.136 149.106 233.136C165.528 233.136 178.888 219.776 178.888 203.353C178.889 192.358 172.895 182.742 164.008 177.583Z" fill="white"></path>
  </g>
</svg>